<?xml version="1.0" encoding="UTF-8"?>
<svg id="_Шар_1" data-name="Шар_1" xmlns="http://www.w3.org/2000/svg" version="1.1" viewBox="0 0 25.3 25.5">
  <!-- Generator: Adobe Illustrator 30.0.0, SVG Export Plug-In . SVG Version: 2.1.1 Build 123)  -->
  <defs>
    <style>
      .st0 {
        fill: none;
        stroke: #f59e0b;
      }

      .st0, .st1 {
        stroke-linecap: round;
        stroke-linejoin: round;
      }

      .st1 {
        fill-opacity: 0;
        stroke: #6366f1;
        stroke-width: 1.5px;
      }
    </style>
  </defs>
  <circle class="st1" cx="12" cy="12" r="10"/>
  <path class="st1" d="M12,2c-5.3,5.6-5.3,14.4,0,20,5.3-5.6,5.3-14.4,0-20"/>
  <path class="st1" d="M2,12h20"/>
  <path class="st0" d="M17.7,17.9c0,0,0-.2,0-.2,0,0,0,0,.1,0l6,2.4c0,0,.1.1.1.2,0,0,0,0-.1.1l-2.3.6c-.3,0-.5.3-.5.5l-.6,2.3c0,0-.1.2-.2.1,0,0-.1,0-.1-.1l-2.4-6Z"/>
</svg>