<?xml version="1.0" encoding="UTF-8"?>
<svg id="_Шар_1" xmlns="http://www.w3.org/2000/svg" version="1.1" xmlns:xlink="http://www.w3.org/1999/xlink" viewBox="0 0 24 24">
  <!-- Generator: Adobe Illustrator 30.0.0, SVG Export Plug-In . SVG Version: 2.1.1 Build 123)  -->
  <defs>
    <style>
      .st0 {
        fill: #fff;
      }

      .st1 {
        fill: url(#_Градієнт_без_назви_28);
      }
    </style>
    <linearGradient id="_Градієнт_без_назви_28" data-name="Градієнт без назви 28" x1="12.1" y1="168.1" x2="12.1" y2="144.1" gradientTransform="translate(0 -144.1)" gradientUnits="userSpaceOnUse">
      <stop offset="0" stop-color="#ec4899"/>
      <stop offset="1" stop-color="#db2777"/>
    </linearGradient>
  </defs>
  <rect class="st1" x="0" y="0" width="24" height="24" rx="3.4" ry="3.4"/>
  <path class="st0" d="M16.2,4.5c-1.4,0-2.8.7-3.6,1.9l-.5.7-.5-.7c-.8-1.2-2.2-1.9-3.6-1.9-2.5,0-4.5,2-4.5,4.5h0c0,3.9,4.7,8.2,7.2,10.1.4.3.9.5,1.4.5s1-.2,1.4-.5c2.5-1.9,7.2-6.3,7.2-10h0c0-2.6-2-4.6-4.5-4.6ZM15.2,12.4l-4,2.6c-.3.2-.7,0-.7-.4v-5.2c0-.4.4-.6.7-.4l4,2.6c.3.2.3.6,0,.8Z"/>
</svg>