<?xml version="1.0" encoding="UTF-8"?>
<svg id="_Шар_1" data-name="Шар_1" xmlns="http://www.w3.org/2000/svg" version="1.1" viewBox="0 0 72 56">
  <!-- Generator: Adobe Illustrator 30.2.1, SVG Export Plug-In . SVG Version: 2.1.1 Build 1)  -->
  <defs>
    <style>
      .st0, .st1 {
        fill: #fff;
      }

      .st2 {
        fill: #eb001b;
      }

      .st3 {
        fill: #ff5f00;
      }

      .st1 {
        fill-opacity: 0;
      }

      .st4 {
        fill: #f79e1b;
      }
    </style>
  </defs>
  <g id="Figurehead">
    <g id="card-schemes">
      <g id="mastercard">
        <rect id="Rectangle-26-Copy" class="st1" x="-19" y="-7" width="110" height="70"/>
        <g id="Group">
          <path class="st0" d="M13.4,55.5v-3.7c0-1.4-.9-2.3-2.3-2.3s-1.5.2-2.1,1c-.4-.7-1-1-2-1s-1.2.2-1.7.9v-.7h-1.3v5.8h1.3v-3.2c0-1,.5-1.5,1.4-1.5s1.3.5,1.3,1.5v3.2h1.3v-3.2c0-1,.6-1.5,1.4-1.5s1.3.5,1.3,1.5v3.2h1.4ZM32.3,49.6h-2.1v-1.8h-1.3v1.8h-1.2v1.2h1.2v2.7c0,1.3.5,2.1,2,2.1s1.2-.2,1.6-.4l-.4-1.1c-.4.2-.8.3-1.1.3-.6,0-.9-.4-.9-1v-2.6h2.1v-1.2ZM43.2,49.5c-.7,0-1.2.4-1.5.9v-.7h-1.3v5.8h1.3v-3.3c0-1,.4-1.5,1.2-1.5s.5,0,.8.1l.4-1.2c-.2,0-.6,0-.9,0h0ZM26.8,50.1c-.6-.4-1.5-.6-2.4-.6-1.5,0-2.4.7-2.4,1.9s.7,1.5,2,1.7h.6c.7.2,1,.4,1,.7s-.5.7-1.3.7-1.5-.3-2-.6l-.6,1c.7.5,1.6.7,2.5.7,1.7,0,2.7-.8,2.7-1.9s-.8-1.6-2-1.8h-.6c-.5-.1-1-.2-1-.6s.4-.7,1.1-.7,1.5.3,1.8.5l.5-1ZM60.8,49.5c-.7,0-1.2.4-1.5.9v-.7h-1.3v5.8h1.3v-3.3c0-1,.4-1.5,1.2-1.5s.5,0,.8.1l.4-1.2c-.2,0-.6,0-.9,0h0ZM44.5,52.5c0,1.8,1.2,3,3.1,3s1.5-.2,2.1-.7l-.6-1c-.5.4-1,.5-1.5.5-1,0-1.8-.7-1.8-1.9s.7-1.8,1.8-1.9c.5,0,1,.2,1.5.5l.6-1c-.6-.5-1.2-.7-2.1-.7-1.9,0-3.1,1.3-3.1,3h0ZM56.3,52.5v-2.9h-1.3v.7c-.4-.5-1-.9-1.8-.9-1.6,0-2.9,1.3-2.9,3s1.3,3,2.9,3,1.5-.3,1.8-.9v.7h1.3v-2.9ZM51.6,52.5c0-1,.7-1.9,1.8-1.9s1.8.8,1.8,1.9-.7,1.9-1.8,1.9c-1.1,0-1.8-.9-1.8-1.9h0ZM36.3,49.5c-1.7,0-2.9,1.2-2.9,3s1.2,3,3,3,1.7-.2,2.4-.8l-.6-.9c-.5.4-1.1.6-1.7.6s-1.6-.4-1.8-1.4h4.3v-.5c0-1.9-1-3.1-2.7-3.1h0ZM36.3,50.6c.8,0,1.3.5,1.5,1.4h-3.1c.1-.8.7-1.4,1.6-1.4h0ZM68.1,52.5v-5.2h-1.3v3c-.4-.5-1-.9-1.8-.9-1.6,0-2.9,1.3-2.9,3s1.3,3,2.9,3,1.5-.3,1.8-.9v.7h1.3v-2.9ZM63.4,52.5c0-1,.7-1.9,1.8-1.9s1.8.8,1.8,1.9-.7,1.9-1.8,1.9c-1.1,0-1.8-.9-1.8-1.9h0ZM20.6,52.5v-2.9h-1.3v.7c-.4-.5-1-.9-1.8-.9-1.6,0-2.9,1.3-2.9,3s1.3,3,2.9,3,1.5-.3,1.8-.9v.7h1.3v-2.9ZM15.8,52.5c0-1,.7-1.9,1.8-1.9s1.8.8,1.8,1.9-.7,1.9-1.8,1.9c-1.1,0-1.8-.9-1.8-1.9Z"/>
          <g>
            <rect id="Rectangle-path" class="st3" x="26.4" y="5.2" width="19.2" height="34.5"/>
            <path class="st2" d="M27.6,22.5c0-7,3.3-13.2,8.4-17.2-3.7-2.9-8.4-4.7-13.5-4.7C10.3.5.4,10.3.4,22.5s9.8,21.9,22,21.9,9.8-1.8,13.5-4.7c-5.1-4-8.4-10.2-8.4-17.2Z"/>
            <path id="Shape" class="st4" d="M71.5,22.5c0,12.1-9.8,21.9-22,21.9s-9.8-1.8-13.5-4.7c5.1-4,8.4-10.2,8.4-17.2s-3.3-13.2-8.4-17.2c3.7-2.9,8.4-4.7,13.5-4.7,12.1,0,22,9.9,22,21.9Z"/>
          </g>
        </g>
      </g>
    </g>
  </g>
</svg>