<?xml version="1.0" encoding="UTF-8"?>
<svg id="_Шар_2" data-name="Шар_2" xmlns="http://www.w3.org/2000/svg" version="1.1" viewBox="0 0 640 640">
  <!-- Generator: Adobe Illustrator 30.0.0, SVG Export Plug-In . SVG Version: 2.1.1 Build 123)  -->
  <defs>
    <style>
      .st0 {
        fill: #fff;
      }
    </style>
  </defs>
  <path class="st0" d="M443,98c-42.7,0-82.9,20.5-107.9,55.1l-15,20.7-15-20.7c-25-34.6-65.2-55.1-107.9-55.1-73.5,0-133.1,59.6-133.1,133.1v2.6c0,112.2,139.9,242.5,212.9,298.2,12.3,9.5,27.6,14.1,43.1,14.1s30.7-4.7,43.1-14.1c73-55.7,212.9-186,212.9-298.2v-2.6c0-73.5-59.6-133.1-133.1-133.1ZM414.6,333.6l-120.1,77.2c-9.2,5.9-21.2-.7-21.2-11.6v-154.4c0-10.9,12-17.5,21.2-11.6l120.1,77.2c8.4,5.4,8.4,17.7,0,23.1Z"/>
</svg>