<?xml version="1.0" encoding="UTF-8"?>
<svg id="_Шар_1" data-name="Шар_1" xmlns="http://www.w3.org/2000/svg" version="1.1" viewBox="0 0 81 27">
  <!-- Generator: Adobe Illustrator 30.2.1, SVG Export Plug-In . SVG Version: 2.1.1 Build 1)  -->
  <defs>
    <style>
      .st0, .st1 {
        fill: #fff;
      }

      .st1 {
        fill-opacity: 0;
      }
    </style>
  </defs>
  <g id="Figurehead">
    <g id="card-schemes">
      <g id="visa">
        <rect id="Rectangle-26" class="st1" x="-12" y="-22" width="110" height="70"/>
        <g id="g4155-Clipped">
          <g id="g4155">
            <g id="g4161">
              <path id="path4163" class="st0" d="M40,.7l-5.4,25.7h-6.5L33.5.7h6.5ZM67.2,17.4l3.4-9.7,2,9.7h-5.4ZM74.5,26.5h6L75.2.7h-5.5c-1.2,0-2.3.7-2.8,1.9l-9.7,23.9h6.8l1.4-3.8h8.3l.8,3.8h0ZM57.6,18.1c0-6.8-9.1-7.2-9.1-10.2,0-.9.9-1.9,2.7-2.2.9-.1,3.5-.2,6.4,1.2l1.1-5.5c-1.6-.6-3.6-1.1-6.1-1.1-6.4,0-10.9,3.5-11,8.5,0,3.7,3.2,5.8,5.7,7,2.5,1.3,3.4,2.1,3.4,3.2,0,1.7-2,2.5-3.9,2.5-3.3,0-5.2-.9-6.7-1.6l-1.2,5.6c1.5.7,4.3,1.3,7.2,1.4,6.8,0,11.3-3.5,11.3-8.8h0ZM30.7.7l-10.5,25.7h-6.9L8.2,5.9c-.3-1.3-.6-1.7-1.5-2.3C5.1,2.8,2.5,2,.3,1.5l.2-.7h11c1.4,0,2.7,1,3,2.6l2.7,14.9L23.9.7h6.8Z"/>
            </g>
          </g>
        </g>
      </g>
    </g>
  </g>
</svg>